# xmcd CD database file
#
# Track frame offsets:
#	150
#	22942
#	43137
#	60946
#	82955
#	105594
#	130617
#	153158
#	178856
#	201564
#	223867
#	245831
#	260366
#	286997
#	309998
#	335566
#
# Disc length: 4747 seconds
#
# Revision: 0
# Processed by: cddbd v1.5.1PL2 Copyright (c) Steve Scherf et al.
# Submitted via: CDex 1.51
#
DISCID=e1128910
DTITLE=Various Artist - Salsa Caliente
DYEAR=1900
DGENRE=Salsa
TTITLE0=Charlie Cruz - Amarte es un problema
TTITLE1=Yuri Buenaventura - Salsa
TTITLE2=Alquimia - Ave Maria Lola
TTITLE3=Charlie Cruz - Bombon de Azucar
TTITLE4=Cuando aprenda - 3,2 Get Funky
TTITLE5=Willy Chirino - Cuba que lindos son tus paisages
TTITLE6=Domingo Quinones - Se necesita un milagro
TTITLE7=Los Van Van - Esto me pone la cabeza mala
TTITLE8=DLG - La quiero a morir
TTITLE9=DLG - Juliana
TTITLE10=DLG - Acuyuye
TTITLE11=Dany Brillant - Une fille comme ça
TTITLE12=Compilation Perfecta - No vale la pena
TTITLE13=Willy Chirino - La jinetera
TTITLE14=Marcando la distancia - Manolito
TTITLE15=Ricky Martin - La Bomba
EXTD=
EXTT0=
EXTT1=
EXTT2=
EXTT3=
EXTT4=
EXTT5=
EXTT6=
EXTT7=
EXTT8=
EXTT9=
EXTT10=
EXTT11=
EXTT12=
EXTT13=
EXTT14=
EXTT15=
PLAYORDER=
